<?xml version="1.0" standalone="no"?><!DOCTYPE svg PUBLIC "-//W3C//DTD SVG 1.1//EN" "http://www.w3.org/Graphics/SVG/1.1/DTD/svg11.dtd"><svg t="1563171474308" class="icon" viewBox="0 0 1024 1024" version="1.1" xmlns="http://www.w3.org/2000/svg" p-id="7970" xmlns:xlink="http://www.w3.org/1999/xlink" width="200" height="200"><defs><style type="text/css"></style></defs><path d="M816.8 705.6h-71.2c-8.8 0-16-7.2-16-16s7.2-16 16-16h71.2c94.4 0 171.2-76.8 171.2-171.2 0-40.8-15.2-80.8-41.6-112-3.2-4-4.8-9.6-3.2-14.4 3.2-12.8 5.6-26.4 5.6-39.2 0-78.4-59.2-143.2-136.8-150.4-5.6-0.8-9.6-3.2-12.8-8C749.6 90.4 656 36 556 36c-68.8 0-134.4 24.8-185.6 71.2-4 4-9.6 4.8-15.2 3.2-15.2-4-30.4-6.4-45.6-6.4-94.4 0-171.2 76.8-171.2 171.2 0 17.6 2.4 34.4 8 50.4 2.4 8-1.6 16-8.8 19.2C76 373.6 36 435.2 36 502.4c0 94.4 76.8 171.2 171.2 171.2h71.2c8.8 0 16 7.2 16 16s-7.2 16-16 16h-71.2C95.2 705.6 4 614.4 4 502.4c0-75.2 41.6-144 108-179.2-4-15.2-5.6-31.2-5.6-47.2C106.4 163.2 197.6 72 309.6 72c15.2 0 30.4 1.6 45.6 4.8C411.2 29.6 482.4 3.2 556 3.2c109.6 0 210.4 57.6 266.4 151.2 90.4 12.8 157.6 88.8 157.6 181.6 0 12.8-1.6 25.6-4 39.2 28.8 36 44 80.8 44 126.4 0 112.8-91.2 204-203.2 204z" p-id="7971" fill="#a202fc"></path><path d="M744 1020H280c-8.8 0-16-7.2-16-16V384c0-8.8 7.2-16 16-16h345.6c4 0 8.8 1.6 11.2 4.8L756 496c3.2 3.2 4.8 7.2 4.8 11.2v497.6c-0.8 8-8 15.2-16.8 15.2z m-448-32h432V513.6L618.4 400H296v588z" p-id="7972" fill="#a202fc"></path><path d="M744 514.4H624.8c-4.8 0-8-3.2-8-8V384c0-3.2 1.6-6.4 4.8-7.2 3.2-1.6 6.4-0.8 8.8 1.6l119.2 122.4c2.4 2.4 3.2 5.6 1.6 8.8-0.8 3.2-4 4.8-7.2 4.8z m-111.2-16h92L632.8 404v94.4zM644 651.2h-264c-4.8 0-8-3.2-8-8s3.2-8 8-8h264.8c4.8 0 8 3.2 8 8-0.8 4-4 8-8.8 8zM644 768h-264c-4.8 0-8-3.2-8-8s3.2-8 8-8h264.8c4.8 0 8 3.2 8 8-0.8 4.8-4 8-8.8 8zM644 885.6h-264c-4.8 0-8-3.2-8-8s3.2-8 8-8h264.8c4.8 0 8 3.2 8 8-0.8 4-4 8-8.8 8z" p-id="7973" fill="#a202fc"></path></svg>